<svg width="512" height="512" viewBox="0 0 512 512" fill="none" xmlns="http://www.w3.org/2000/svg">
<g clip-path="url(#clip0)">
<path d="M511.756 403.97C512.841 412.282 510.308 419.509 504.167 425.651L432.079 497.195C428.827 500.808 424.582 503.882 419.342 506.409C414.103 508.939 408.955 510.565 403.897 511.287C403.536 511.287 402.449 511.38 400.642 511.561C398.838 511.741 396.489 511.833 393.598 511.833C386.731 511.833 375.619 510.658 360.261 508.309C344.904 505.959 326.115 500.177 303.894 490.964C281.668 481.75 256.465 467.927 228.281 449.5C200.097 431.074 170.104 405.778 138.306 373.617C113.012 348.684 92.0537 324.835 75.4318 302.072C58.8099 279.306 45.4401 258.258 35.3224 238.926C25.2038 219.594 17.6156 202.068 12.5568 186.35C7.49792 170.631 4.06514 157.081 2.25841 145.698C0.451682 134.316 -0.271009 125.373 0.0903363 118.869C0.451682 112.364 0.632355 108.751 0.632355 108.028C1.35505 102.969 2.9811 97.8201 5.51052 92.5806C8.03994 87.3411 11.1114 83.0953 14.7248 79.8432L86.8133 7.75476C91.8721 2.69592 97.6536 0.166504 104.158 0.166504C108.855 0.166504 113.011 1.52155 116.624 4.23164C120.238 6.94173 123.309 10.2842 125.839 14.259L183.835 124.289C187.087 130.07 187.99 136.394 186.545 143.259C185.099 150.125 182.028 155.906 177.33 160.604L150.771 187.163C150.049 187.885 149.416 189.06 148.874 190.686C148.332 192.312 148.061 193.667 148.061 194.751C149.507 202.339 152.759 211.012 157.818 220.768C162.154 229.44 168.839 240.01 177.872 252.476C186.906 264.942 199.734 279.305 216.356 295.566C232.616 312.189 247.07 325.106 259.717 334.322C272.362 343.532 282.934 350.31 291.426 354.646C299.918 358.983 306.422 361.602 310.938 362.503L317.711 363.859C318.434 363.859 319.611 363.587 321.235 363.046C322.861 362.503 324.036 361.872 324.759 361.148L355.653 329.711C362.161 323.93 369.746 321.04 378.419 321.04C384.564 321.04 389.439 322.123 393.053 324.292H393.594L498.202 386.082C505.793 390.783 510.309 396.743 511.756 403.97Z" fill="#F9B707"/>
</g>
<defs>
<clipPath id="clip0">
<rect width="512" height="512" fill="white"/>
</clipPath>
</defs>
</svg>
