<svg width="512" height="512" viewBox="0 0 512 512" fill="none" xmlns="http://www.w3.org/2000/svg">
<g clip-path="url(#clip0)">
<path d="M49.1419 178.859C55.6186 183.43 75.1419 197.004 107.713 219.574C140.284 242.145 165.237 259.523 182.57 271.711C184.475 273.047 188.521 275.951 194.71 280.428C200.901 284.907 206.045 288.527 210.137 291.288C214.233 294.048 219.185 297.144 224.997 300.571C230.808 303.996 236.285 306.572 241.427 308.277C246.571 309.996 251.333 310.848 255.713 310.848H256H256.288C260.668 310.848 265.432 309.995 270.576 308.277C275.716 306.572 281.198 303.993 287.004 300.571C292.812 297.14 297.764 294.047 301.86 291.288C305.955 288.527 311.095 284.907 317.288 280.428C323.476 275.947 327.527 273.047 329.432 271.711C346.952 259.523 391.528 228.57 463.144 178.853C477.048 169.143 488.665 157.427 497.997 143.712C507.336 130.003 512 115.621 512 100.575C512 88.0021 507.474 77.2392 498.425 68.2877C489.377 59.3341 478.662 54.8599 466.285 54.8599H45.7124C31.0467 54.8599 19.7604 59.8115 11.8557 69.7147C3.95189 79.62 0 92.001 0 106.857C0 118.857 5.23983 131.86 15.7145 145.859C26.1881 159.86 37.3343 170.861 49.1419 178.859Z" fill="#F9B707"/>
<path d="M483.425 209.428C420.955 251.71 373.521 284.57 341.144 308.001C330.287 315.998 321.48 322.24 314.716 326.714C307.952 331.19 298.956 335.761 287.716 340.426C276.48 345.097 266.008 347.426 256.292 347.426H256.001H255.714C246 347.426 235.522 345.097 224.286 340.426C213.05 335.761 204.048 331.19 197.286 326.714C190.526 322.24 181.716 315.998 170.86 308.001C145.144 289.145 97.8114 256.283 28.8601 209.428C18.0001 202.195 8.38112 193.904 0 184.572V411.422C0 424.002 4.47427 434.759 13.4278 443.711C22.3793 452.667 33.1432 457.143 45.7154 457.143H466.289C478.858 457.143 489.621 452.667 498.573 443.711C507.529 434.756 512.001 424.003 512.001 411.422V184.572C503.809 193.71 494.288 202.002 483.425 209.428Z" fill="#F9B707"/>
</g>
<defs>
<clipPath id="clip0">
<rect width="512" height="512" fill="white"/>
</clipPath>
</defs>
</svg>
