<svg width="512" height="512" viewBox="0 0 512 512" fill="none" xmlns="http://www.w3.org/2000/svg">
<path d="M255.992 0C152.065 0 67.5049 84.5605 67.5049 188.498C67.5049 215.609 73.0539 241.494 83.9894 265.44C131.116 368.565 221.472 477.443 248.049 508.353C250.04 510.664 252.943 511.995 255.997 511.995C259.052 511.995 261.955 510.664 263.946 508.353C290.512 477.449 380.868 368.575 428.011 265.44C438.952 241.494 444.495 215.609 444.495 188.498C444.485 84.5605 359.924 0 255.992 0ZM255.992 286.404C202.006 286.404 158.081 242.479 158.081 188.493C158.081 134.501 202.006 90.5758 255.992 90.5758C309.978 90.5758 353.904 134.501 353.904 188.493C353.909 242.479 309.983 286.404 255.992 286.404Z" fill="#F9B707"/>
</svg>
